<svg id="Ebene_1" data-name="Ebene 1" xmlns="http://www.w3.org/2000/svg" viewBox="0 0 720 600"><defs><style>.cls-1{fill:#96a5ba;}.cls-2{fill:#c0c9d6;}</style></defs><title>Zeichenfläche 3260</title><path class="cls-1" d="M14.1,319H51.32c20.79,0,29.06,10.78,29.06,23.76,0,16.11-10.8,24.8-28.38,24.8H23.29v34H14.1Zm9.19,40.33h27c12.06,0,20.56-3.48,20.56-16.34,0-10.2-6.78-15.88-20.56-15.88h-27Z"/><path class="cls-1" d="M102.56,374.74,91.07,401.51H81.31L117.15,319h10.8l37.11,82.52h-10L143,374.74Zm37.22-8.23c-10.68-23.88-15.62-35-17.46-40.45h-.12c-1.72,5.22-7.7,19.82-16.43,40.45Z"/><path class="cls-1" d="M191.13,327.1H159.2V319h73.06v8.11H200.44v74.41h-9.3Z"/><path class="cls-1" d="M258.23,319v82.52H249V319Z"/><path class="cls-1" d="M348,362.11H298V393.4h55l-1.26,8.11h-63V319h61.8v8.11H298V354h50Z"/><path class="cls-1" d="M373.4,401.51V319h11c17.12,23.07,48.25,62.94,52.73,71.17h.23c-.69-11.36-.57-23.76-.57-37.09V319h8.73v82.52H435c-13.33-17.62-47.1-63.17-53.3-72.79h-.23c.69,10.66.69,22.37.69,37v35.81Z"/><path class="cls-1" d="M494.26,327.1H462.32V319h73.06v8.11H503.56v74.41h-9.3Z"/><path class="cls-1" d="M611.32,362.11h-50V393.4h55l-1.26,8.11h-63V319H614v8.11H561.35V354h50Z"/><path class="cls-1" d="M636.71,401.51V319h11c17.12,23.07,48.25,62.94,52.73,71.17h.23c-.69-11.36-.57-23.76-.57-37.09V319h8.73v82.52H698.29C685,383.9,651.19,338.35,645,328.73h-.23c.69,10.66.69,22.37.69,37v35.81Z"/><path class="cls-2" d="M36.47,472.31c-15.86-3.06-18.65-6.77-18.65-13.42,0-9.45,9.46-12.8,17.56-12.8,11,0,17.38,4.81,19.63,13.91l.15,1h3.42l-.17-1.35C57.3,453.5,52.83,443,35.38,443c-12.56,0-21,6.4-21,16.07,0,10.44,7.16,13.73,21.26,16.54,17.61,3.54,20.71,7.85,20.71,15.64,0,8.88-7.43,14.17-19.87,14.17-12.1,0-19.82-6.1-21.76-16.24L14.6,488H11.15l.17,1.48c2.17,12.23,10.9,19,25.25,19s23.3-6.66,23.3-17.59C59.87,481.91,56,476.12,36.47,472.31Z"/><path class="cls-2" d="M130.25,442.8c-18.2,0-31.93,14.14-31.93,32.9,0,19.11,13.29,33,31.59,33,18.75,0,31.85-13.78,31.85-33.5C161.76,456.72,148.22,442.8,130.25,442.8Zm-.08,3.28c15.74,0,28.07,12.86,28.07,29.28,0,17.69-11.61,30.05-28.24,30.05-18.29,0-28.16-15.35-28.16-29.79C101.84,459.06,114.28,446.08,130.17,446.08Z"/><polygon class="cls-2" points="203.75 508 206.75 508 206.75 478 245.75 478 245.75 474 206.75 474 206.75 447 246.75 447 246.75 444 203.75 444 203.75 508"/><polygon class="cls-2" points="278.75 447 302.75 447 302.75 508 305.75 508 305.75 447 329.75 447 329.75 444 278.75 444 278.75 447"/><path class="cls-2" d="M447.28,444.55c-4.88,13.67-16.44,46.77-20.12,57.39-2.86-10-13.65-45-17.47-57.36l-.18-.58h-3.25l-.19.57c-4.82,14.51-15.44,46.58-18.61,56.91-1.23-4.34-4-12.94-8.12-26.05q-4-12.66-9.74-30.84l-.18-.58h-3.69l20.09,64h3.07l.19-.82c5.56-16.68,15.75-47.62,18.68-57.36,1.19,3.93,3.54,11.55,6.16,20.1,4.17,13.61,8.9,29.26,11.28,37.26l.17.81h3.33l22.38-64h-3.62Z"/><path class="cls-2" d="M505.08,444l-27.46,64h3.67l10.51-25h28.92l10.51,25H535l-27.2-64Zm-11.81,36c2.17-5,4.24-10,6.11-14.28,3.23-7.46,5.78-13.42,7-16.44,1,2.65,3,7.27,6.08,14.54,1.87,4.36,4.14,10.19,6.86,16.19Z"/><path class="cls-2" d="M620.75,493.73V493c0-9.66-3.43-15.08-10.74-17.53,7.21-2.16,10.87-7.35,10.87-15.16,0-9.87-7.6-16.26-19.15-16.26h-25v64h3V478h18.82c15.07,0,19.18,5.35,19.18,15v.78c0,6.07-.28,14.27-.28,14.27h3.28Zm-41-46.73h21.13c10.4,0,16.36,5.1,16.36,13.46,0,9-5.82,13.54-18.33,13.54H579.75Z"/><polygon class="cls-2" points="669.75 504 669.75 475 708.75 475 708.75 472 669.75 472 669.75 447 709.75 447 709.75 444 666.75 444 666.75 508 711.04 508 711.89 504 669.75 504"/><path class="cls-2" d="M34.3,570.77c-2.09,4.48-3.52,7.95-4.38,9.85-.5-1.19-1.21-3.39-2.23-5.75L17.13,550H14.32l14.59,35h1.82L46.4,550H43.57Z"/><polygon class="cls-2" points="68.75 569 87.75 569 87.75 566 68.75 566 68.75 553 87.75 553 87.75 550 64.75 550 64.75 585 88.67 585 89.31 582 68.75 582 68.75 569"/><path class="cls-2" d="M133.75,577.69v-.4c0-4.68-1.93-7.58-5.16-9.07,3.27-1.33,4.75-4.77,4.75-8.64,0-5.36-4.26-9.58-10.5-9.58H108.75v35h2V569H121.2c7.52,0,9.55,3.41,9.55,8.29v.4c0,3.17-.26,5.16.06,6.76l-.13.55h2.71l.19-.92C133.32,583.11,133.75,580,133.75,577.69Zm-23-24.69h11.64c5.14,0,8.1,2.89,8.1,7,0,4.47-2.81,7-9.11,7H110.75Z"/><path class="cls-2" d="M193.46,551.3c-2.38,6.65-7.79,22.52-10,29-1.61-5.48-5.59-19-8.72-29.13l-.18-1.15h-2.26l-.19,1.32c-2.33,7-7.27,22.3-9.27,28.65-.75-2.51-2-6.4-3.87-12.14-1.39-4.37-3.07-10.34-5-16.59l-.18-1.24H151l10.67,35h2.17l.19-.45c2.17-6.52,7.32-22,9.32-28.4.65,2.15,1.66,5.44,2.81,9.19,2.12,6.92,4.63,15,5.87,19.17l.17.49h2.3l11.89-35h-2.71Z"/><path class="cls-2" d="M226.27,550l-14.59,35h2.76l5.46-12h14.49l5.46,12h2.8L228.2,550ZM221,570c1-3,2-4.73,3-6.82,1.43-3.29,2.55-5.88,3.25-7.55.59,1.44,1.5,3.55,2.81,6.62.91,2.13,2,4.74,3.31,7.74Z"/><polygon class="cls-2" points="264.75 550 262.75 550 262.75 585 283.89 585 283.67 582 264.75 582 264.75 550"/><polygon class="cls-2" points="298.75 553 310.75 553 310.75 585 313.75 585 313.75 553 326.75 553 326.75 550 298.75 550 298.75 553"/><path class="cls-2" d="M369.28,570.46c0,8.53-3.23,12.7-10.81,12.7-4.1,0-11-1.9-11-12.71L347.14,550h-2.39v21.16c0,9.33,4.82,14.69,13.43,14.69,9.08,0,13.57-5.11,13.57-15.18V550h-2.54Z"/><path class="cls-2" d="M420.3,580.24c-3.35-4.24-10.87-14-17-21.62L396.72,550h-2v35H397V565.39c0-3.45,0-6.69-.06-9.63,3,3.79,9.5,12,15.42,19.45,3.06,3.84,5.86,7.25,7.7,9.57l.25.21h1.48V550h-1.48S420.25,577.7,420.3,580.24Z"/><path class="cls-2" d="M460.17,553.38c6.5,0,11,2.38,12.66,7.49l.18.13h2.68l-.33-.63c-2-6.4-7.34-9.71-15.11-9.71-9.73,0-16.79,7.56-16.79,17.84s6.78,17.29,16.48,17.29c5.9,0,10.16-2,12.7-5.77,0,2.16,0,5,0,5h3.07V567h-15v3h13v1.34c0,7.75-5,12-13.21,12-9.55,0-14.18-7.64-14.18-14.74C446.36,559.64,451.88,553.38,460.17,553.38Z"/><path class="cls-2" d="M508.48,566.19c-8-1.54-9.36-3.28-9.36-6.57,0-4.61,4.69-6.25,8.72-6.25,7.3,0,9.09,3.47,9.8,6.36l.15.27h2.55l-.17-.61c-.6-3.31-3-8.68-12.34-8.68-6.75,0-11.29,3.62-11.29,8.87,0,5.69,3.82,7.53,11.35,9,8.87,1.78,10.43,3.94,10.43,7.76,0,4.36-3.71,7-9.91,7s-9.94-2.7-10.9-7.75l-.13-.59h-2.59l.17.89c1.16,6.56,5.83,10,13.49,10s12.48-3.69,12.48-9.6C520.94,571.56,518.86,568.21,508.48,566.19Z"/><path class="cls-2" d="M598.11,550.89c-9.51,0-17,7.67-17,17.46,0,10.14,7.06,17.5,16.79,17.5,10,0,16.92-7.31,16.92-17.77C614.85,558.28,607.66,550.89,598.11,550.89ZM598,583.35c-9.23,0-14.21-7.76-14.21-15.06,0-8.37,6.28-14.92,14.3-14.92s14.17,6.5,14.17,14.79C612.24,577.11,606.37,583.35,598,583.35Z"/><path class="cls-2" d="M650.52,550.89c-9.51,0-17,7.67-17,17.46,0,10.14,7.06,17.5,16.79,17.5,10,0,16.92-7.31,16.92-17.77C667.26,558.28,660.07,550.89,650.52,550.89Zm-.13,32.47c-9.23,0-14.21-7.76-14.21-15.06,0-8.37,6.28-14.92,14.3-14.92s14.17,6.5,14.17,14.79C664.65,577.11,658.78,583.35,650.39,583.35Z"/><polygon class="cls-2" points="691.75 582 691.75 550 688.75 550 688.75 585 710.08 585 709.85 582 691.75 582"/><path class="cls-2" d="M561.75,166c-4-36.46-38-59-79.17-59H443.4c-19.25,0-35.14-14.89-37.2-31.5,2.07-16.61,18-31.5,37.2-31.5h93.35V10H443.4c-27,0-50.88,9.3-65.27,26.63A63,63,0,0,1,391,68.48a37.91,37.91,0,0,1,.22,4.16c0,1.5-.17,4.7-.21,5.41V78h0c-1.32,11-5.77,25.66-12.87,35.34C392.46,131.29,416.38,145,443.4,145h39.18c19.25,0,35.14,12.39,37.2,29-2.07,16.61-18,29-37.2,29H383.75v37h98.83c41.17,0,75.14-32.76,79.17-64.67,0,0,.27-4.1.2-5.32A38.93,38.93,0,0,0,561.75,166Z"/><path class="cls-1" d="M372.65,72.4q0-1.82-.15-3.64A59.91,59.91,0,0,0,352.43,28C342.28,19.21,329.25,14.31,316,11.93s-26.7-2.39-40.12-2.39H176.75V120.68c9-14.66,24.9-20.73,41.83-25.57,0-18.11,0-51.11,0-51.11H289c8.57,0,17.48,1.08,25.07,5.07,9.48,5,15.65,15.8,15.6,26.5S323.21,95.57,314,101c-11.82,7-26.29,7.09-40,6.44-17.82-.85-36-.27-53,5.37s-32.6,17-40.25,33.07c-8.54,18-5.89,40.17,4.68,57s28.27,28.55,47.37,34.14c16.75,4.9,41.25,4.12,63.82,4.14,27.56,0,51.93,0,51.93,0l0-38.34s-55,0-82.48,0c-10.06,0-20.46,0-29.68-4-11-4.81-19.56-16.44-18-28.35,1.73-13.09,14.64-22.17,27.57-24.84s26.31-.61,39.51-.58c27.9.06,57.09-10.28,73.79-32.63A66.55,66.55,0,0,0,372.65,72.4Z"/><polygon class="cls-2" points="536.75 553 548.75 553 548.75 585 552.75 585 552.75 553 564.75 553 564.75 550 536.75 550 536.75 553"/></svg>