<svg id="Ebene_1" data-name="Ebene 1" xmlns="http://www.w3.org/2000/svg" viewBox="0 0 800 600"><defs><style>.cls-1{fill:#96a5ba;}.cls-2{fill:#d5dbe3;}.cls-3{fill:#fff;}</style></defs><title>Vektor logo Rund260</title><circle class="cls-1" cx="400" cy="261.58" r="131.83"/><path class="cls-2" d="M512.17,296.28C509.82,275,490,262,466.06,262H443.23c-11.21,0-20.47-8.82-21.67-18.5,1.2-9.68,10.46-18.5,21.67-18.5h54.64V205H443.23c-15.72,0-29.64,5.56-38,15.65a37,37,0,0,1,7.47,18.63,22.88,22.88,0,0,1,.13,2.46c0,.87-.1,2.81-.12,3.22v0h0c-.77,6-3.36,14.93-7.5,20.57A49.53,49.53,0,0,0,443.23,284h22.82c11.21,0,20.47,7.32,21.67,17-1.2,9.68-10.46,17-21.67,17H408.87v22h57.18c24,0,43.77-19.45,46.12-38,0,0,.16-2.52.12-3.23S512.17,296.28,512.17,296.28Z"/><path class="cls-3" d="M402,241.64q0-1.06-.08-2.12a34.9,34.9,0,0,0-11.7-23.75c-5.91-5.11-13.5-8-21.19-9.35S353.5,205,345.68,205H287.87v64.74c6-8.54,14.49-12.37,24.35-15.19,0-10.55.05-29.57.05-29.57h41c5,0,10.18.68,14.6,3A17.77,17.77,0,0,1,377,243.46c0,6.24-3.76,11.66-9.12,14.85-6.88,4.09-15.31,4.14-23.31,3.76-10.38-.49-21-.15-30.85,3.13s-19,9.88-23.45,19.27c-5,10.47-3.43,23.4,2.73,33.22s16.47,16.63,27.59,19.88c9.75,2.86,24,2.4,37.18,2.41,16.05,0,30.25,0,30.25,0l0-22.33s-32,0-48,0c-5.86,0-11.92,0-17.29-2.33-6.41-2.8-11.39-9.58-10.48-16.51,1-7.63,8.53-12.92,16.06-14.47s15.32-.36,23-.34c16.25,0,33.26-6,43-19A38.77,38.77,0,0,0,402,241.64Z"/></svg>