<?xml version="1.0" encoding="utf-8"?>
<!-- Generator: Adobe Illustrator 19.2.1, SVG Export Plug-In . SVG Version: 6.00 Build 0)  -->
<svg version="1.1" id="Ebene_1" xmlns="http://www.w3.org/2000/svg" xmlns:xlink="http://www.w3.org/1999/xlink" x="0px" y="0px"
	 viewBox="0 0 483 398" style="enable-background:new 0 0 483 398;" xml:space="preserve">
<style type="text/css">
	.st0{fill:#FFFFFF;}
	.st1{fill:#C0C9D6;}
	.st2{fill:#D5DBE3;}
</style>
<title>Vektor Logo Text260</title>
<path class="st0" d="M24.8,219.5h22.7c12.7,0,17.7,6.6,17.7,14.5c0,9.8-6.6,15.1-17.3,15.1H30.4v20.7h-5.6L24.8,219.5z M30.4,244.1
	h16.5c7.4,0,12.5-2.1,12.5-10c0-6.2-4.1-9.7-12.5-9.7H30.4L30.4,244.1z"/>
<path class="st0" d="M78.7,253.5l-7,16.3h-6l21.9-50.3h6.6l22.7,50.3h-6.1l-7.4-16.3H78.7z M101.4,248.5
	c-6.5-14.6-9.5-21.3-10.6-24.7h-0.1c-1.1,3.2-4.7,12.1-10,24.7H101.4z"/>
<path class="st0" d="M132.7,224.4h-19.5v-5h44.5v5h-19.4v45.4h-5.7V224.4z"/>
<path class="st0" d="M173.6,219.5v50.3H168v-50.3H173.6z"/>
<path class="st0" d="M228.4,245.8h-30.5v19.1h33.5l-0.8,5h-38.4v-50.3H230v5h-32.1v16.4h30.5V245.8z"/>
<path class="st0" d="M243.8,269.8v-50.3h6.7c10.5,14.1,29.5,38.4,32.2,43.4h0.1c-0.4-6.9-0.4-14.5-0.4-22.6v-20.8h5.3v50.3h-6.4
	c-8.1-10.7-28.7-38.5-32.5-44.4h-0.1c0.4,6.5,0.4,13.6,0.4,22.5v21.8H243.8z"/>
<path class="st0" d="M317.5,224.4H298v-5h44.5v5h-19.4v45.4h-5.7L317.5,224.4z"/>
<path class="st0" d="M388.9,245.8h-30.5v19.1H392l-0.8,4.9h-38.4v-50.3h37.7v5h-32.1v16.4h30.5V245.8z"/>
<path class="st0" d="M404.4,269.8v-50.3h6.7c10.4,14.1,29.4,38.4,32.2,43.4h0.1c-0.4-6.9-0.3-14.5-0.3-22.6v-20.8h5.3v50.3h-6.4
	c-8.1-10.7-28.7-38.5-32.5-44.4h-0.1c0.4,6.5,0.4,13.6,0.4,22.5v21.8H404.4z"/>
<path class="st0" d="M24.7,323.6c1.1,5.7,5.4,10,13.8,10c8.6,0,12.6-4,12.6-9.1s-2.3-7.9-13-10c-8.7-1.7-12.6-3.7-12.6-9.6
	s5.5-9.4,12.3-9.4c10.5,0,12.9,6.1,13.6,9.6h-1.1c-1-4-3.6-8.6-12.5-8.6c-5.6,0-11.2,2.5-11.2,8.3c0,4.6,2.2,6.8,11.8,8.7
	c11.6,2.3,13.9,5.7,13.9,10.9c0,7.1-6.3,10.3-13.7,10.3c-8.3,0-13.6-3.6-14.9-11L24.7,323.6z"/>
<path class="st0" d="M114.3,314.7c0,11.1-7.1,19.9-18.9,19.9c-11.1,0-18.8-8.6-18.8-19.6c0-10.6,7.8-19.6,19-19.6
	C106.3,295.5,114.3,303.9,114.3,314.7z M77.8,315c0,9.9,6.9,18.7,17.7,18.7c10.4,0,17.7-7.7,17.7-18.8c0-9.9-7.2-18.4-17.6-18.4
	C85.7,296.5,77.8,304.5,77.8,315L77.8,315z"/>
<path class="st0" d="M141.4,296.2h25v1h-23.9V314h22.3v1h-22.3v18.9h-1.1V296.2z"/>
<path class="st0" d="M201.1,297.2h-14.9v-1h30.8v1h-14.9v36.7h-1.1V297.2z"/>
<path class="st0" d="M251.8,333.9l-11.9-37.7h1.2c7,22.2,10.9,34.3,11.3,36.3h0c0.8-3,8.5-26.5,11.8-36.3h1.3
	c3,9.6,10.6,34.3,11,36.4h0c1.3-3.8,9.5-27.2,12.8-36.4h1.1l-13.3,37.7h-1.3c-2.7-9.1-10.6-34.5-11.1-36.4h0
	c-0.6,2.6-8.1,25.2-11.8,36.4H251.8z"/>
<path class="st0" d="M315.7,319l-6.4,14.9h-1.1l16.3-37.7h1l16.2,37.7h-1.2L334,319H315.7z M333.6,318c-5.4-12.8-8-18.6-8.6-20.5h0
	c-0.4,1.3-4.3,10.1-8.8,20.5H333.6z"/>
<path class="st0" d="M368.8,315.3v18.6h-1.1v-37.7H383c6.3,0,11.1,3.3,11.1,9.4c0,5-2.5,8.3-8.3,9.2c4.9,1,8,3.5,8,10.7v0.5
	c-0.1,2.6,0,5.3,0.4,7.9H393c-0.4-2.6-0.5-5.3-0.4-7.9v-0.5c0-6.4-2.3-10.3-11.6-10.3H368.8z M368.8,314.3h12.6
	c7.4,0,11.7-2.4,11.7-8.6c0-5.5-4.1-8.5-10.5-8.5h-13.8V314.3z"/>
<path class="st0" d="M447.5,314.2h-23.2v18.7h25.3l-0.3,1h-26.2v-37.7h25.4v1h-24.3v16h23.2V314.2z"/>
<path class="st1" d="M34.1,381.3l-8.5-19.5h0.6l5.1,11.6c1.8,4.3,2.7,6.1,3,7.1l0,0c0.4-0.9,1.5-3.2,3.1-6.8l5.5-11.9h0.6l-9,19.6
	H34.1z"/>
<path class="st1" d="M68.9,371.1H56.8v9.7H70l-0.1,0.5H56.3v-19.6h13.2v0.5H56.8v8.3h12.1V371.1z"/>
<path class="st1" d="M83.7,371.6v9.6h-0.6v-19.5h8c3.3,0,5.8,1.7,5.8,4.9c0,2.6-1.3,4.3-4.3,4.8c2.5,0.5,4.2,1.8,4.2,5.6v0.3
	c-0.1,1.4,0,2.7,0.2,4.1h-0.6c-0.2-1.4-0.2-2.7-0.2-4.1V377c0-3.3-1.2-5.3-6-5.3L83.7,371.6z M83.7,371.1h6.5c3.8,0,6.1-1.2,6.1-4.4
	c0-2.9-2.1-4.4-5.4-4.4h-7.1V371.1z"/>
<path class="st1" d="M115.1,381.3l-6.2-19.5h0.6c3.6,11.5,5.7,17.8,5.9,18.8l0,0c0.4-1.5,4.4-13.7,6.1-18.8h0.6
	c1.5,5,5.5,17.8,5.7,18.9l0,0c0.7-2,4.9-14.1,6.6-18.9h0.6l-6.9,19.5h-0.7c-1.4-4.7-5.5-17.9-5.8-18.9l0,0
	c-0.3,1.4-4.2,13.1-6.1,18.9H115.1z"/>
<path class="st1" d="M149.9,373.6l-3.3,7.7H146l8.5-19.5h0.5l8.4,19.5h-0.6l-3.3-7.7H149.9z M159.2,373c-2.8-6.6-4.2-9.6-4.5-10.6
	l0,0c-0.2,0.6-2.2,5.3-4.5,10.6H159.2z"/>
<path class="st1" d="M176.4,361.8h0.6v19h12l-0.1,0.5h-12.4V361.8z"/>
<path class="st1" d="M206.4,362.3h-7.7v-0.5h16v0.5h-7.7v19h-0.6L206.4,362.3z"/>
<path class="st1" d="M227.2,361.8v11.3c0,6.5,3.9,8.1,7.2,8.1c4.3,0,7.3-2,7.3-8.1v-11.3h0.6v11.2c0,6.4-3.1,8.8-7.8,8.8
	s-7.8-2.8-7.8-8.5v-11.5H227.2z"/>
<path class="st1" d="M257.1,381.3v-19.5h0.7c3.9,4.9,13.5,16.9,14.9,18.7l0,0c-0.1-1.3-0.1-5.8-0.1-9v-9.8h0.6v19.6h-0.6
	c-3.8-4.8-14.2-17.8-15-18.9l0,0c0.1,2.6,0.1,5.7,0.1,9.1v9.8L257.1,381.3z"/>
<path class="st1" d="M305.4,381.3h-0.5c-0.1-0.5,0-3.5,0-4.7c-1.1,3-3.5,5.1-8.3,5.1c-6.1,0-9.5-4.6-9.5-10c0-6,4-10.3,9.7-10.3
	c4.5,0,7.6,2,8.7,5.7h-0.6c-1.1-3.5-4.2-5.2-8.2-5.2c-5.5,0-9.1,4.2-9.1,9.8c0,5.1,3.3,9.5,9,9.5c4.9,0,8.2-2.5,8.2-7.8V372h-8.2
	v-0.5h8.7L305.4,381.3z"/>
<path class="st1" d="M319,376c0.6,3,2.8,5.2,7.1,5.2s6.5-2.1,6.5-4.7s-1.2-4.1-6.8-5.2c-4.5-0.9-6.5-1.9-6.5-5s2.8-4.9,6.4-4.9
	c5.5,0,6.7,3.2,7,5h-0.6c-0.5-2.1-1.9-4.5-6.5-4.5c-2.9,0-5.8,1.3-5.8,4.3c0,2.4,1.2,3.5,6.1,4.5c6,1.2,7.2,3,7.2,5.6
	c0,3.7-3.3,5.3-7.1,5.3c-4.3,0-7.1-1.9-7.7-5.7H319z"/>
<path class="st1" d="M351.8,362.3h-7.7v-0.5h16v0.5h-7.7v19h-0.6L351.8,362.3z"/>
<path class="st1" d="M390.5,371.3c0,5.8-3.7,10.3-9.8,10.3c-5.8,0-9.7-4.4-9.7-10.2c-0.2-5.4,4.1-10,9.5-10.1c0.1,0,0.2,0,0.3,0
	c5.3,0,9.7,4.3,9.7,9.6C390.5,371.1,390.5,371.2,390.5,371.3z M371.5,371.5c0,5.1,3.6,9.7,9.2,9.7c5.4,0,9.2-4,9.2-9.8
	c0.2-5.1-3.8-9.3-8.9-9.5c-0.1,0-0.2,0-0.3,0c-5.2,0.1-9.3,4.3-9.2,9.5C371.6,371.4,371.6,371.4,371.5,371.5L371.5,371.5z"/>
<path class="st1" d="M422.5,371.3c0,5.8-3.7,10.3-9.8,10.3c-5.8,0-9.7-4.4-9.7-10.2c-0.2-5.4,4.1-10,9.5-10.1c0.1,0,0.2,0,0.3,0
	c5.3,0,9.7,4.3,9.7,9.6C422.5,371.1,422.5,371.2,422.5,371.3z M403.5,371.5c0,5.1,3.6,9.7,9.2,9.7c5.4,0,9.2-4,9.2-9.8
	c0.2-5.1-3.8-9.3-8.9-9.5c-0.1,0-0.2,0-0.3,0c-5.2,0.1-9.3,4.3-9.2,9.5C403.5,371.4,403.5,371.4,403.5,371.5L403.5,371.5z"/>
<path class="st1" d="M436.3,361.8h0.6v19h12l-0.1,0.5h-12.4V361.8z"/>
<path class="st2" d="M358.7,126.5c-2.5-22.2-23.2-35.7-48.3-35.7h-23.9c-11.7,0-21.4-9.4-22.7-19.5c1.3-10.1,11-19.5,22.7-19.5H344
	v-21h-57.5c-16.5,0-31,5.8-39.8,16.4c4.4,5.7,7.1,12.4,7.8,19.5c0.1,0.9,0.1,1.7,0.1,2.6c0,0.9-0.1,3-0.1,3.4v0.1l0,0
	c-0.8,6-3.5,15.7-7.9,21.6c8.8,11,23.3,19.4,39.8,19.4h23.9c11.7,0,21.4,7.4,22.7,17.5c-1.3,10.1-11,17.5-22.7,17.5H251v23h59.4
	c25.1,0,45.8-20.2,48.3-39.7c0,0,0.2-2.5,0.1-3.2C358.8,128.1,358.8,127.3,358.7,126.5z"/>
<path class="st0" d="M243.4,69.1c0-0.7,0-1.5-0.1-2.2c-0.7-9.6-5.1-18.5-12.3-24.9c-6.2-5.4-14.1-8.3-22.2-9.8s-16.2-1.5-24.4-1.5
	H124v67.8c6-8.9,14.6-12.7,25-15.6c0-11,0.5-31.2,0.5-31.2h42.9c5.2,0,10.7,0.7,15.3,3.1c5.9,3.3,9.5,9.5,9.5,16.2
	c0,6.5-3.9,12.2-9.5,15.5c-7.2,4.3-16,4.3-24.4,3.9c-10.9-0.5-22-0.2-32.3,3.3s-19.9,10.3-24.5,20.2c-5.2,11-3.6,24.5,2.9,34.8
	s17.2,17.4,28.9,20.8c10.2,3,25.1,2.5,38.9,2.5c16.8,0,31.7,0,31.7,0v-23.4c0,0-33.5,0-50.3,0c-6.1,0-12.5,0-18.1-2.4
	c-6.7-2.9-11.9-10-11-17.3c1-8,8.9-13.5,16.8-15.1s16-0.4,24.1-0.4c17,0,34.8-6.3,45-19.9C240.5,86.5,243.4,78,243.4,69.1z"/>
</svg>
