<svg id="Ebene_1" data-name="Ebene 1" xmlns="http://www.w3.org/2000/svg" viewBox="0 0 800 600"><defs><style>.cls-1{fill:#96a5ba;}.cls-2{fill:#c0c9d6;}.cls-3{fill:#d5dbe3;}</style></defs><title>Vektor Logo Text260</title><path class="cls-1" d="M174.77,337.69h22.69c12.68,0,17.72,6.57,17.72,14.49,0,9.82-6.58,15.12-17.3,15.12H180.38V388h-5.6Zm5.6,24.59h16.46c7.35,0,12.54-2.12,12.54-10,0-6.22-4.13-9.68-12.54-9.68H180.38Z"/><path class="cls-1" d="M228.71,371.68l-7,16.32h-6l21.85-50.31h6.58L266.81,388h-6.09l-7.35-16.32Zm22.69-5c-6.51-14.56-9.52-21.34-10.65-24.66h-.07c-1.05,3.18-4.69,12.08-10,24.66Z"/><path class="cls-1" d="M282.71,342.63H263.24v-4.95h44.54v4.95h-19.4V388h-5.67Z"/><path class="cls-1" d="M323.61,337.69V388H318V337.69Z"/><path class="cls-1" d="M378.35,364H347.88v19.08h33.55l-.77,4.95H342.28V337.69H380v4.95H347.88V359h30.47Z"/><path class="cls-1" d="M393.83,388V337.69h6.72C411,351.75,430,376.06,432.7,381.08h.14c-.42-6.92-.35-14.49-.35-22.61V337.69h5.32V388h-6.44c-8.12-10.74-28.72-38.51-32.5-44.38h-.14c.42,6.5.42,13.64.42,22.54V388Z"/><path class="cls-1" d="M467.52,342.63H448v-4.95h44.54v4.95h-19.4V388h-5.67Z"/><path class="cls-1" d="M538.89,364H508.42v19.08H542L541.2,388H502.82V337.69H540.5v4.95H508.42V359h30.47Z"/><path class="cls-1" d="M554.37,388V337.69h6.72c10.44,14.06,29.42,38.37,32.15,43.39h.14c-.42-6.92-.35-14.49-.35-22.61V337.69h5.32V388h-6.44c-8.12-10.74-28.71-38.51-32.5-44.38h-.14c.42,6.5.42,13.64.42,22.54V388Z"/><path class="cls-1" d="M174.67,441.85c1.09,5.73,5.42,10,13.76,10,8.6,0,12.61-4,12.61-9.15s-2.29-7.89-13-10c-8.7-1.73-12.56-3.68-12.56-9.62s5.47-9.36,12.3-9.36c10.53,0,12.92,6.15,13.55,9.62H200.2c-1-4-3.65-8.62-12.46-8.62-5.63,0-11.2,2.47-11.2,8.31,0,4.57,2.24,6.84,11.78,8.68,11.62,2.26,13.86,5.73,13.86,10.88,0,7.15-6.31,10.3-13.71,10.3-8.29,0-13.6-3.63-14.9-11Z"/><path class="cls-1" d="M264.3,432.92c0,11.15-7.09,19.93-18.92,19.93-11.1,0-18.76-8.57-18.76-19.61,0-10.57,7.77-19.56,19-19.56C256.33,413.67,264.3,422.14,264.3,432.92Zm-36.53.26c0,9.88,6.88,18.67,17.67,18.67,10.37,0,17.72-7.73,17.72-18.82,0-9.88-7.24-18.35-17.61-18.35C235.69,414.67,227.77,422.72,227.77,433.18Z"/><path class="cls-1" d="M291.4,414.41h25v1H292.49v16.82h22.3v1h-22.3v18.88H291.4Z"/><path class="cls-1" d="M351.12,415.41H336.27v-1h30.8v1H352.21v36.7h-1.09Z"/><path class="cls-1" d="M401.77,452.11l-11.93-37.7H391c7,22.24,10.94,34.28,11.31,36.33h.05c.78-3,8.55-26.45,11.83-36.33h1.25c3,9.62,10.58,34.28,11,36.44h.05c1.3-3.79,9.49-27.23,12.77-36.44h1.15l-13.29,37.7h-1.3c-2.71-9.1-10.58-34.54-11.1-36.44h-.05c-.63,2.63-8.08,25.18-11.83,36.44Z"/><path class="cls-1" d="M465.69,437.17l-6.41,14.93h-1.15l16.31-37.7h1l16.16,37.7h-1.2L484,437.17Zm17.88-1c-5.42-12.78-8-18.61-8.6-20.45h-.05c-.42,1.26-4.32,10.15-8.75,20.45Z"/><path class="cls-1" d="M518.76,433.49v18.61h-1.09v-37.7H533c6.31,0,11.1,3.26,11.1,9.41,0,5-2.55,8.31-8.34,9.2,4.9.95,8,3.47,8,10.73v.47a45,45,0,0,0,.37,7.89H543a44.35,44.35,0,0,1-.36-7.89v-.47c0-6.36-2.34-10.25-11.57-10.25Zm0-1h12.56c7.4,0,11.67-2.37,11.67-8.57,0-5.52-4.06-8.52-10.47-8.52H518.76Z"/><path class="cls-1" d="M597.47,432.44H574.23v18.66h25.33l-.26,1H573.13v-37.7h25.43v1H574.23v16h23.24Z"/><path class="cls-2" d="M184.14,499.5l-8.46-19.55h.62l5.06,11.64c1.84,4.25,2.68,6.13,3,7.09h0c.38-.87,1.46-3.22,3.14-6.82l5.52-11.92h.62L184.6,499.5Z"/><path class="cls-2" d="M218.9,489.3H206.84V499H220l-.14.52H206.28V479.95h13.19v.52H206.84v8.32H218.9Z"/><path class="cls-2" d="M233.66,489.85v9.65h-.57V479.95h8c3.27,0,5.76,1.69,5.76,4.88,0,2.59-1.32,4.31-4.33,4.77,2.54.49,4.16,1.8,4.16,5.56v.25a23.34,23.34,0,0,0,.19,4.09h-.59a22.94,22.94,0,0,1-.19-4.09v-.25c0-3.3-1.22-5.32-6-5.32Zm0-.52h6.52c3.84,0,6.06-1.23,6.06-4.44,0-2.86-2.11-4.42-5.44-4.42h-7.14Z"/><path class="cls-2" d="M265.1,499.5l-6.19-19.55h.62c3.62,11.53,5.68,17.78,5.87,18.84h0c.41-1.55,4.43-13.72,6.14-18.84h.65c1.54,5,5.49,17.78,5.73,18.9h0c.68-2,4.92-14.12,6.62-18.9h.59l-6.89,19.55h-.68c-1.41-4.72-5.49-17.92-5.76-18.9h0c-.32,1.36-4.19,13.06-6.14,18.9Z"/><path class="cls-2" d="M299.92,491.76l-3.33,7.74H296l8.46-19.55H305l8.38,19.55h-.62l-3.33-7.74Zm9.27-.52c-2.81-6.63-4.16-9.65-4.46-10.61h0c-.22.65-2.24,5.26-4.54,10.61Z"/><path class="cls-2" d="M326.44,479.95H327v19h12l-.14.52H326.44Z"/><path class="cls-2" d="M356.36,480.47h-7.71v-.52h16v.52h-7.71v19h-.57Z"/><path class="cls-2" d="M377.23,479.95v11.34c0,6.52,3.92,8.07,7.19,8.07,4.27,0,7.27-2,7.27-8.12V479.95h.57v11.18c0,6.41-3.14,8.75-7.84,8.75s-7.76-2.81-7.76-8.45V479.95Z"/><path class="cls-2" d="M407.13,499.5V479.95h.68c3.89,4.88,13.46,16.85,14.92,18.73h0c-.11-1.28-.08-5.83-.08-9v-9.76h.57V499.5h-.59c-3.79-4.77-14.2-17.78-15-18.92h0c.11,2.56.08,5.73.08,9.11v9.82Z"/><path class="cls-2" d="M455.41,499.5h-.51c-.08-.52-.05-3.52-.05-4.72-1.08,3.05-3.51,5.1-8.25,5.1-6.14,0-9.54-4.61-9.54-10,0-6,4-10.31,9.73-10.31,4.54,0,7.6,2,8.73,5.7h-.59c-1.14-3.49-4.22-5.18-8.19-5.18-5.46,0-9.08,4.17-9.08,9.79,0,5.07,3.27,9.49,9,9.49,4.92,0,8.22-2.48,8.22-7.83V490.2h-8.17v-.52h8.73Z"/><path class="cls-2" d="M469,494.18c.57,3,2.81,5.18,7.14,5.18s6.54-2.1,6.54-4.74-1.19-4.09-6.76-5.21c-4.52-.9-6.52-1.91-6.52-5s2.84-4.85,6.38-4.85c5.46,0,6.71,3.19,7,5h-.57c-.51-2.07-1.89-4.47-6.46-4.47-2.92,0-5.81,1.28-5.81,4.31,0,2.37,1.16,3.54,6.11,4.5,6,1.17,7.19,3,7.19,5.64,0,3.71-3.27,5.34-7.11,5.34-4.3,0-7.06-1.88-7.73-5.7Z"/><path class="cls-2" d="M501.8,480.47h-7.71v-.52h16v.52h-7.71v19h-.57Z"/><path class="cls-2" d="M540.54,489.55c0,5.78-3.68,10.33-9.81,10.33-5.76,0-9.73-4.44-9.73-10.17a9.83,9.83,0,0,1,9.84-10.14A9.67,9.67,0,0,1,540.54,489.55Zm-19,.14c0,5.13,3.57,9.68,9.17,9.68,5.38,0,9.19-4,9.19-9.76a9.2,9.2,0,0,0-9.14-9.52A9.33,9.33,0,0,0,521.59,489.68Z"/><path class="cls-2" d="M572.49,489.55c0,5.78-3.68,10.33-9.81,10.33-5.76,0-9.73-4.44-9.73-10.17a9.83,9.83,0,0,1,9.84-10.14A9.67,9.67,0,0,1,572.49,489.55Zm-19,.14c0,5.13,3.57,9.68,9.17,9.68,5.38,0,9.19-4,9.19-9.76a9.2,9.2,0,0,0-9.14-9.52A9.33,9.33,0,0,0,553.54,489.68Z"/><path class="cls-2" d="M586.28,479.95h.57v19h12l-.14.52H586.28Z"/><path class="cls-3" d="M508.67,244.71C506.21,222.47,485.5,209,460.4,209H436.51c-11.74,0-21.42-9.37-22.68-19.5,1.26-10.13,10.95-19.5,22.68-19.5H494V149H436.51c-16.45,0-31,5.82-39.79,16.38a38.67,38.67,0,0,1,7.82,19.5,24,24,0,0,1,.14,2.57c0,.92-.1,3-.13,3.43V191h0c-.8,6-3.52,15.72-7.85,21.62C405.45,223.57,420,232,436.51,232H460.4c11.74,0,21.42,7.37,22.68,17.5-1.26,10.13-10.95,17.5-22.68,17.5H401v23h59.4c25.1,0,45.81-20.21,48.27-39.66,0,0,.16-2.48.12-3.22A23.19,23.19,0,0,0,508.67,244.71Z"/><path class="cls-1" d="M393.38,187.35q0-1.11-.09-2.22A36.53,36.53,0,0,0,381,160.27c-6.19-5.35-14.13-8.34-22.18-9.79S342.59,149,334.41,149H274v67.76c6-8.94,14.63-12.66,25-15.61,0-11,.48-31.17.48-31.17h42.92c5.23,0,10.66.68,15.28,3.1a18.57,18.57,0,0,1,9.51,16.17c0,6.53-3.93,12.2-9.54,15.53-7.21,4.28-16,4.32-24.4,3.93-10.87-.52-22-.16-32.29,3.27s-19.87,10.34-24.54,20.16c-5.2,11-3.59,24.49,2.85,34.77s17.24,17.4,28.88,20.81c10.21,3,25.15,2.51,38.91,2.53,16.8,0,31.66,0,31.66,0l0-23.37s-33.52,0-50.29,0c-6.13,0-12.47,0-18.09-2.44-6.71-2.93-11.92-10-11-17.28,1.05-8,8.93-13.52,16.81-15.15s16-.37,24.09-.35c17,0,34.81-6.27,45-19.89A40.57,40.57,0,0,0,393.38,187.35Z"/></svg>