<svg id="Ebene_1" data-name="Ebene 1" xmlns="http://www.w3.org/2000/svg" viewBox="0 0 720 600"><defs><style>.cls-1{fill:#fff;}.cls-2{fill:#f4f6f8;}.cls-3{fill:#eaedf1;}</style></defs><title>Vektor Logo Text Kopie</title><path class="cls-1" d="M13.62,319H51.19c20.79,0,29.06,11,29.06,24,0,16.11-10.8,25-28.38,25H23.62v34h-10Zm10,40H50.16c12.06,0,20.56-3.37,20.56-16.23,0-10.2-6.78-15.77-20.56-15.77H23.62Z"/><path class="cls-1" d="M102.43,375,90.94,402H81.18L117,319h10.8l37.11,83h-10l-12.06-27Zm37.22-8C129,343,124,332,122.19,326h-.12c-1.72,5-7.7,20-16.43,41Z"/><path class="cls-1" d="M190.62,327h-32v-8h74v8h-32v75h-10Z"/><path class="cls-1" d="M257.62,319v83h-9V319Z"/><path class="cls-1" d="M347.62,362h-50v31h55.32l-1.26,9H288.62V319h62v8h-53v27h50Z"/><path class="cls-1" d="M494.62,327h-32v-8h73v8h-32v75h-9Z"/><path class="cls-1" d="M611.62,362h-50v31h54.63L615,402H551.62V319h62v8h-52v27h50Z"/><path class="cls-1" d="M636.62,402V319h11l53,71.16V319h8v83H698.16l-53.54-73.27V402Z"/><path class="cls-1" d="M373.62,402V319H384.3l53.32,71.16V319h8v83H434.85l-53.23-73.27V402Z"/><path class="cls-1" d="M36.34,472.31c-15.86-3.06-18.65-6.77-18.65-13.42,0-9.45,9.46-12.8,17.56-12.8,11,0,17.38,4.81,19.63,13.91l.15,1h3.42l-.17-1.35c-1.11-6.15-5.58-16.65-23-16.65-12.56,0-21,6.4-21,16.07,0,10.44,7.16,13.73,21.26,16.54,17.61,3.54,20.71,7.85,20.71,15.64,0,8.88-7.43,14.17-19.87,14.17-12.1,0-19.82-6.1-21.76-16.24L14.47,488H11l.17,1.48c2.17,12.23,10.9,19,25.25,19s23.3-6.66,23.3-17.59C59.75,481.91,55.92,476.12,36.34,472.31Z"/><path class="cls-1" d="M130.13,442.8c-18.2,0-31.93,14.14-31.93,32.9,0,19.11,13.29,33,31.59,33,18.75,0,31.85-13.78,31.85-33.5C161.63,456.72,148.09,442.8,130.13,442.8Zm-.08,3.28c15.74,0,28.07,12.86,28.07,29.28,0,17.69-11.61,30.05-28.24,30.05-18.29,0-28.16-15.35-28.16-29.79C101.71,459.06,114.16,446.08,130,446.08Z"/><polygon class="cls-1" points="203.62 508 206.62 508 206.62 478 245.62 478 245.62 474 206.62 474 206.62 447 246.62 447 246.62 444 203.62 444 203.62 508"/><polygon class="cls-1" points="278.62 447 302.62 447 302.62 508 305.62 508 305.62 447 329.62 447 329.62 444 278.62 444 278.62 447"/><polygon class="cls-1" points="427.04 501.94 409.38 444 406.14 444 387.33 501.47 369.29 444 365.61 444 385.7 508 388.77 508 407.64 449.82 425.26 508 428.59 508 450.97 444 447.35 444 427.04 501.94"/><path class="cls-1" d="M505,444l-27.46,64h3.67l10.51-25h28.92l10.51,25h3.75l-27.2-64Zm-11.81,36,13.13-30.73L519.21,480Z"/><path class="cls-1" d="M620.62,493c0-9.66-3.43-15.08-10.74-17.53,7.21-2.16,10.87-7.35,10.87-15.16,0-9.87-7.6-16.26-19.15-16.26h-25v64h3V478h18.82c15.07,0,19.18,5.35,19.18,15v15h3Zm-41-46h21.13c10.4,0,16.36,5.1,16.36,13.46,0,9-5.82,13.54-18.33,13.54H579.62Z"/><polygon class="cls-1" points="669.62 504 669.62 475 708.62 475 708.62 472 669.62 472 669.62 447 709.62 447 709.62 444 666.62 444 666.62 508 711.62 508 711.62 504 669.62 504"/><polygon class="cls-2" points="29.79 580.63 17.01 550 14.2 550 28.79 585 30.61 585 46.27 550 43.44 550 29.79 580.63"/><polygon class="cls-2" points="68.62 569 87.62 569 87.62 566 68.62 566 68.62 553 87.62 553 87.62 550 65.62 550 65.62 585 88.54 585 88.54 582 68.62 582 68.62 569"/><path class="cls-2" d="M133.62,577.69v-.4c0-4.68-1.93-7.58-5.16-9.07,3.27-1.33,4.75-4.77,4.75-8.64,0-5.36-4.26-9.58-10.5-9.58H108.62v35h3V569h9.45c7.52,0,9.55,3.41,9.55,8.29V585h3Zm-22-24.69h10.64c5.14,0,8.1,2.89,8.1,7,0,4.47-2.81,7-9.11,7h-9.62Z"/><polygon class="cls-2" points="183.29 580.27 174.4 550 172.13 550 162.68 579.97 153.59 550 150.85 550 161.53 585 163.69 585 173.2 556.15 182.05 585 184.35 585 196.24 550 193.52 550 183.29 580.27"/><path class="cls-2" d="M226.15,550l-14.59,35h2.86l5.36-12h14.49l5.36,12h2.9l-14.45-35Zm-5.27,20,6.2-14.36L233.21,570Z"/><polygon class="cls-2" points="265.62 550 262.62 550 262.62 585 283.62 585 283.62 582 265.62 582 265.62 550"/><polygon class="cls-2" points="298.62 553 310.62 553 310.62 585 313.62 585 313.62 553 326.62 553 326.62 550 298.62 550 298.62 553"/><polygon class="cls-2" points="536.62 553 548.62 553 548.62 585 551.62 585 551.62 553 564.62 553 564.62 550 536.62 550 536.62 553"/><polygon class="cls-2" points="420.17 580.24 396.59 550 393.62 550 393.62 585 396.62 585 396.62 555.77 420.15 585 422.62 585 422.62 550 420.17 550 420.17 580.24"/><path class="cls-2" d="M460,553.38c6.5,0,11,2.51,12.66,7.62h2.63c-2-6.4-7.43-10.33-15.2-10.33-9.73,0-16.79,7.56-16.79,17.84s6.81,17.29,16.51,17.29c5.9,0,10.35-1.72,12.76-5.77v5h3V567h-15v3h13v1.34c0,7.75-5,12-13.21,12-9.55,0-14.18-7.64-14.18-14.74C446.24,559.64,451.76,553.38,460,553.38Z"/><path class="cls-2" d="M508.35,566.19c-8-1.54-9.36-3.28-9.36-6.57,0-4.61,4.69-6.25,8.72-6.25,7.3,0,9.09,3.47,9.8,6.36l.09.27h2.54l-.09-.61c-.6-3.31-3-8.68-12.34-8.68-6.75,0-11.29,3.62-11.29,8.87,0,5.69,3.82,7.53,11.35,9,8.87,1.78,10.43,3.94,10.43,7.76,0,4.36-3.71,7-9.91,7s-9.94-2.7-10.9-7.75l-.13-.59h-2.59l.17.89c1.16,6.56,5.83,10,13.49,10s12.48-3.69,12.48-9.6C520.82,571.56,518.73,568.21,508.35,566.19Z"/><path class="cls-2" d="M598,550.89c-9.51,0-17,7.67-17,17.46,0,10.14,7.06,17.5,16.79,17.5,10,0,16.92-7.31,16.92-17.77C614.73,558.28,607.53,550.89,598,550.89Zm-.13,32.47c-9.23,0-14.21-7.76-14.21-15.06,0-8.37,6.28-14.92,14.3-14.92s14.17,6.5,14.17,14.79C612.11,577.11,606.25,583.35,597.85,583.35Z"/><path class="cls-2" d="M650.39,550.89c-9.51,0-17,7.67-17,17.46,0,10.14,7.06,17.5,16.79,17.5,10,0,16.92-7.31,16.92-17.77C667.14,558.28,659.94,550.89,650.39,550.89Zm-.13,32.47C641,583.35,636,575.6,636,568.3c0-8.37,6.28-14.92,14.3-14.92s14.17,6.5,14.17,14.79C664.52,577.11,658.66,583.35,650.26,583.35Z"/><polygon class="cls-2" points="691.62 582 691.62 550 688.62 550 688.62 585 709.62 585 709.62 582 691.62 582"/><path class="cls-3" d="M561.63,166c-4-36.46-38-59-79.17-59H443.27c-19.25,0-35.14-14.89-37.2-31.5,2.07-16.61,18-31.5,37.2-31.5h93.35V10H443.27c-27,0-50.88,9.3-65.27,26.63a63,63,0,0,1,12.82,31.86,37.91,37.91,0,0,1,.22,4.16c0,1.5-.17,4.7-.21,5.41V78h0c-1.32,11-5.77,25.66-12.87,35.34C392.34,131.29,416.25,145,443.27,145h39.18c19.25,0,35.14,12.39,37.2,29-2.07,16.61-18,29-37.2,29H383.62v37h98.83c41.17,0,75.14-32.76,79.17-64.67,0,0,.27-4.1.2-5.32A38.93,38.93,0,0,0,561.63,166Z"/><path class="cls-1" d="M372.53,72.4q0-1.82-.15-3.64A59.91,59.91,0,0,0,352.3,28c-10.15-8.77-23.18-13.68-36.38-16.06s-26.7-2.39-40.12-2.39H176.62V120.68c9-14.66,24.9-20.73,41.83-25.57,0-18.11,0-51.11,0-51.11h70.41c8.57,0,17.48,1.08,25.07,5.07,9.48,5,15.65,15.8,15.6,26.5s-6.45,20-15.65,25.47c-11.82,7-26.29,7.09-40,6.44-17.82-.85-36-.27-53,5.37s-32.6,17-40.25,33.07c-8.54,18-5.89,40.17,4.68,57s28.27,28.55,47.37,34.14c16.75,4.9,41.25,4.12,63.82,4.14,27.56,0,51.93,0,51.93,0l0-38.34s-55,0-82.48,0c-10.06,0-20.46,0-29.68-4-11-4.81-19.56-16.44-18-28.35,1.73-13.09,14.64-22.17,27.57-24.84s26.31-.61,39.51-.58c27.9.06,57.09-10.28,73.79-32.63A66.55,66.55,0,0,0,372.53,72.4Z"/><path class="cls-2" d="M372.62,550h-3v20.46a20.34,20.34,0,0,1-1.05,7.15c-2.21,4.5-6.51,5.26-9.45,5.28s-7.24-.77-9.45-5.28a20.34,20.34,0,0,1-1.05-7.15V550h-3v20.67c0,.17,0,.32,0,.49h0a21,21,0,0,0,.67,5.44c1.39,5.48,5,8.54,10.77,9.13l.47.05h.11c.46,0,.93.06,1.41.06h.13c.48,0,1,0,1.41-.06h.11l.47-.05c5.81-.58,9.38-3.64,10.77-9.13a21,21,0,0,0,.67-5.44h0c0-.17,0-.32,0-.49Z"/></svg>