<svg id="Ebene_1" data-name="Ebene 1" xmlns="http://www.w3.org/2000/svg" viewBox="0 0 720 600"><defs><style>.cls-1{fill:#96a5ba;}.cls-2{fill:#d5dbe3;}</style></defs><title>Zeichenfläche 3</title><path class="cls-1" d="M12.75,319H50.32c20.79,0,29.06,11,29.06,24,0,16.11-10.8,25-28.38,25H22.75v34h-10Zm10,40H49.28c12.06,0,20.56-3.37,20.56-16.23,0-10.2-6.78-15.77-20.56-15.77H22.75Z"/><path class="cls-1" d="M101.56,375,90.07,402H80.31l35.84-83h10.8l37.11,83h-10L142,375Zm37.22-8c-10.68-24-15.62-35-17.46-41h-.12c-1.72,5-7.7,20-16.43,41Z"/><path class="cls-1" d="M189.75,327h-32v-8h74v8h-32v75h-10Z"/><path class="cls-1" d="M256.75,319v83h-9V319Z"/><path class="cls-1" d="M346.75,362h-50v31h55.32l-1.26,9H287.75V319h62v8h-53v27h50Z"/><path class="cls-1" d="M493.75,327h-32v-8h73v8h-32v75h-9Z"/><path class="cls-1" d="M610.75,362h-50v31h54.63l-1.26,9H550.75V319h62v8h-52v27h50Z"/><path class="cls-1" d="M635.75,402V319h11c17.12,23,53,71.16,53,71.16V319h8v83H697.29l-52.54-73.27V402Z"/><path class="cls-1" d="M372.75,402V319h10.68c17.12,23,53.32,71.16,53.32,71.16V319h8v83H434l-53.23-73.27V402Z"/><path class="cls-2" d="M35.47,472.31c-15.86-3.06-18.65-6.77-18.65-13.42,0-9.45,9.46-12.8,17.56-12.8,11,0,17.38,4.81,19.63,13.91l.15,1h3.42l-.17-1.35C56.3,453.5,51.83,443,34.38,443c-12.56,0-21,6.4-21,16.07,0,10.44,7.16,13.73,21.26,16.54,17.61,3.54,20.71,7.85,20.71,15.64,0,8.88-7.43,14.17-19.87,14.17-12.1,0-19.82-6.1-21.76-16.24L13.6,488H10.15l.17,1.48c2.17,12.23,10.9,19,25.25,19s23.3-6.66,23.3-17.59C58.87,481.91,55,476.12,35.47,472.31Z"/><path class="cls-2" d="M129.25,442.8c-18.2,0-31.93,14.14-31.93,32.9,0,19.11,13.29,33,31.59,33,18.75,0,31.85-13.78,31.85-33.5C160.76,456.72,147.22,442.8,129.25,442.8Zm-.08,3.28c15.74,0,28.07,12.86,28.07,29.28,0,17.69-11.61,30.05-28.24,30.05-18.29,0-28.16-15.35-28.16-29.79C100.84,459.06,113.28,446.08,129.17,446.08Z"/><polygon class="cls-2" points="202.75 508 205.75 508 205.75 478 244.75 478 244.75 474 205.75 474 205.75 447 245.75 447 245.75 444 202.75 444 202.75 508"/><polygon class="cls-2" points="277.75 447 301.75 447 301.75 508 304.75 508 304.75 447 328.75 447 328.75 444 277.75 444 277.75 447"/><polygon class="cls-2" points="426.16 501.94 408.51 444 405.26 444 386.46 501.47 368.42 444 364.73 444 384.82 508 387.9 508 406.77 449.82 424.39 508 427.72 508 450.09 444 446.48 444 426.16 501.94"/><path class="cls-2" d="M504.08,444l-27.46,64h3.67l10.51-25h28.92l10.51,25H534l-27.2-64Zm-11.81,36,13.13-30.73L518.34,480Z"/><path class="cls-2" d="M619.75,493c0-9.66-3.43-15.08-10.74-17.53,7.21-2.16,10.87-7.35,10.87-15.16,0-9.87-7.6-16.26-19.15-16.26h-25v64h3V478h18.82c15.07,0,19.18,5.35,19.18,15v15h3Zm-41-46h21.13c10.4,0,16.36,5.1,16.36,13.46,0,9-5.82,13.54-18.33,13.54H578.75Z"/><polygon class="cls-2" points="668.75 504 668.75 475 707.75 475 707.75 472 668.75 472 668.75 447 708.75 447 708.75 444 665.75 444 665.75 508 710.75 508 710.75 504 668.75 504"/><polygon class="cls-2" points="28.92 580.63 16.13 550 13.32 550 27.92 585 29.73 585 45.4 550 42.57 550 28.92 580.63"/><polygon class="cls-2" points="67.75 569 86.75 569 86.75 566 67.75 566 67.75 553 86.75 553 86.75 550 64.75 550 64.75 585 87.67 585 87.67 582 67.75 582 67.75 569"/><path class="cls-2" d="M132.75,577.69v-.4c0-4.68-1.93-7.58-5.16-9.07,3.27-1.33,4.75-4.77,4.75-8.64,0-5.36-4.26-9.58-10.5-9.58H107.75v35h3V569h9.45c7.52,0,9.55,3.41,9.55,8.29V585h3Zm-22-24.69h10.64c5.14,0,8.1,2.89,8.1,7,0,4.47-2.81,7-9.11,7h-9.62Z"/><polygon class="cls-2" points="182.42 580.27 173.52 550 171.26 550 161.8 579.97 152.72 550 149.98 550 160.65 585 162.82 585 172.32 556.15 181.17 585 183.47 585 195.36 550 192.65 550 182.42 580.27"/><path class="cls-2" d="M225.27,550l-14.59,35h2.86l5.36-12h14.49l5.36,12h2.9L227.2,550ZM220,570l6.2-14.36L232.33,570Z"/><polygon class="cls-2" points="264.75 550 261.75 550 261.75 585 282.75 585 282.75 582 264.75 582 264.75 550"/><polygon class="cls-2" points="297.75 553 309.75 553 309.75 585 312.75 585 312.75 553 325.75 553 325.75 550 297.75 550 297.75 553"/><polygon class="cls-2" points="535.75 553 547.75 553 547.75 585 550.75 585 550.75 553 563.75 553 563.75 550 535.75 550 535.75 553"/><polygon class="cls-2" points="419.3 580.24 395.72 550 392.75 550 392.75 585 395.75 585 395.75 555.77 419.27 585 421.75 585 421.75 550 419.3 550 419.3 580.24"/><path class="cls-2" d="M459.17,553.38c6.5,0,11,2.51,12.66,7.62h2.63c-2-6.4-7.43-10.33-15.2-10.33-9.73,0-16.79,7.56-16.79,17.84s6.81,17.29,16.51,17.29c5.9,0,10.35-1.72,12.76-5.77v5h3V567h-15v3h13v1.34c0,7.75-5,12-13.21,12-9.55,0-14.18-7.64-14.18-14.74C445.36,559.64,450.88,553.38,459.17,553.38Z"/><path class="cls-2" d="M507.48,566.19c-8-1.54-9.36-3.28-9.36-6.57,0-4.61,4.69-6.25,8.72-6.25,7.3,0,9.09,3.47,9.8,6.36l.09.27h2.54l-.09-.61c-.6-3.31-3-8.68-12.34-8.68-6.75,0-11.29,3.62-11.29,8.87,0,5.69,3.82,7.53,11.35,9,8.87,1.78,10.43,3.94,10.43,7.76,0,4.36-3.71,7-9.91,7s-9.94-2.7-10.9-7.75l-.13-.59h-2.59l.17.89c1.16,6.56,5.83,10,13.49,10s12.48-3.69,12.48-9.6C519.94,571.56,517.86,568.21,507.48,566.19Z"/><path class="cls-2" d="M597.11,550.89c-9.51,0-17,7.67-17,17.46,0,10.14,7.06,17.5,16.79,17.5,10,0,16.92-7.31,16.92-17.77C613.85,558.28,606.66,550.89,597.11,550.89ZM597,583.35c-9.23,0-14.21-7.76-14.21-15.06,0-8.37,6.28-14.92,14.3-14.92s14.17,6.5,14.17,14.79C611.24,577.11,605.37,583.35,597,583.35Z"/><path class="cls-2" d="M649.52,550.89c-9.51,0-17,7.67-17,17.46,0,10.14,7.06,17.5,16.79,17.5,10,0,16.92-7.31,16.92-17.77C666.26,558.28,659.07,550.89,649.52,550.89Zm-.13,32.47c-9.23,0-14.21-7.76-14.21-15.06,0-8.37,6.28-14.92,14.3-14.92s14.17,6.5,14.17,14.79C663.65,577.11,657.78,583.35,649.39,583.35Z"/><polygon class="cls-2" points="690.75 582 690.75 550 687.75 550 687.75 585 708.75 585 708.75 582 690.75 582"/><path class="cls-2" d="M560.75,166c-4-36.46-38-59-79.17-59H442.4c-19.25,0-35.14-14.89-37.2-31.5,2.07-16.61,18-31.5,37.2-31.5h93.35V10H442.4c-27,0-50.88,9.3-65.27,26.63A63,63,0,0,1,390,68.48a37.91,37.91,0,0,1,.22,4.16c0,1.5-.17,4.7-.21,5.41V78h0c-1.32,11-5.77,25.66-12.87,35.34C391.46,131.29,415.38,145,442.4,145h39.18c19.25,0,35.14,12.39,37.2,29-2.07,16.61-18,29-37.2,29H382.75v37h98.83c41.17,0,75.14-32.76,79.17-64.67,0,0,.27-4.1.2-5.32A38.93,38.93,0,0,0,560.75,166Z"/><path class="cls-1" d="M371.65,72.4q0-1.82-.15-3.64A59.91,59.91,0,0,0,351.43,28C341.28,19.21,328.25,14.31,315,11.93s-26.7-2.39-40.12-2.39H175.75V120.68c9-14.66,24.9-20.73,41.83-25.57,0-18.11,0-51.11,0-51.11H288c8.57,0,17.48,1.08,25.07,5.07,9.48,5,15.65,15.8,15.6,26.5S322.21,95.57,313,101c-11.82,7-26.29,7.09-40,6.44-17.82-.85-36-.27-53,5.37s-32.6,17-40.25,33.07c-8.54,18-5.89,40.17,4.68,57s28.27,28.55,47.37,34.14c16.75,4.9,41.25,4.12,63.82,4.14,27.56,0,51.93,0,51.93,0l0-38.34s-55,0-82.48,0c-10.06,0-20.46,0-29.68-4-11-4.81-19.56-16.44-18-28.35,1.73-13.09,14.64-22.17,27.57-24.84s26.31-.61,39.51-.58c27.9.06,57.09-10.28,73.79-32.63A66.55,66.55,0,0,0,371.65,72.4Z"/><path class="cls-2" d="M371.75,550h-3v20.46a20.34,20.34,0,0,1-1.05,7.15c-2.21,4.5-6.51,5.26-9.45,5.28s-7.24-.77-9.45-5.28a20.34,20.34,0,0,1-1.05-7.15V550h-3v20.67c0,.17,0,.32,0,.49h0a21,21,0,0,0,.67,5.44c1.39,5.48,5,8.54,10.77,9.13l.47.05h.11c.46,0,.93.06,1.41.06h.13c.48,0,1,0,1.41-.06h.11l.47-.05c5.81-.58,9.38-3.64,10.77-9.13a21,21,0,0,0,.67-5.44h0c0-.17,0-.32,0-.49Z"/></svg>