<?xml version='1.0' encoding='iso-8859-1'?>
<svg version="1.1" xmlns="http://www.w3.org/2000/svg" viewBox="0 0 490 490" xmlns:xlink="http://www.w3.org/1999/xlink" enable-background="new 0 0 490 490">
  <path d="m490,62.585c0-3.979-1.581-7.794-4.394-10.606l-47.585-47.586c-5.857-5.857-15.355-5.857-21.213-8.88178e-16l-50.626,50.625c-18.944-0.567-38.063,6.331-52.483,20.753l-109.368,109.368c-5.387,5.386-8.354,12.561-8.353,20.202 0,3.514 0.628,6.929 1.83,10.115l-149.795,149.795c-2.813,2.813-4.394,6.628-4.394,10.606 0,1.354 0.183,2.688 0.535,3.971l-33.426,46.797c-4.262,5.967-3.585,14.141 1.6,19.325l5.254,5.255-13.189,13.188c-5.857,5.857-5.857,15.355-8.88178e-16,21.213 2.929,2.929 6.768,4.394 10.607,4.394s7.678-1.465 10.607-4.394l13.188-13.188 5.255,5.255c5.184,5.185 13.357,5.862 19.325,1.6l46.797-33.427c5.025,1.375 10.627,0.087 14.575-3.861l149.801-149.798c10.18,3.835 22.129,1.665 30.311-6.517l109.37-109.368c10.814-10.814 17.408-24.276 19.783-38.318l2.626,2.626c8.771,8.771 13.602,20.496 13.602,33.017 0,12.521-4.831,24.246-13.602,33.018l-83.272,83.273c-5.858,5.857-5.858,15.355 0,21.213 5.857,5.857 15.355,5.857 21.213,0l83.273-83.273c14.437-14.438 22.388-33.696 22.388-54.23 0-20.534-7.951-39.793-22.388-54.229l-9.225-9.226 36.98-36.979c2.813-2.815 4.393-6.631 4.393-10.609zm-433.722,384.889l-6.777-6.776c-0.033-0.034-0.066-0.067-0.1-0.101-0.033-0.033-0.067-0.066-0.101-0.1l-6.775-6.775 21.977-30.769 22.543,22.543-30.767,21.978zm57.863-37.309l-34.308-34.308 137.408-137.407 34.309,34.309-137.409,137.406zm278.875-255.076l-108.356,108.354-58.103-58.104 108.355-108.355c9.223-9.221 21.772-13.131 33.819-11.739 0.669,0.142 1.346,0.237 2.026,0.286 8.156,1.356 15.98,5.175 22.259,11.453l.157,.157c6.186,6.252 9.951,14.011 11.296,22.1 0.049,0.681 0.145,1.358 0.286,2.029 1.393,12.047-2.519,24.598-11.739,33.819zm34.398-66.131l-12.961-12.962c-0.074-0.075-0.147-0.148-0.222-0.223-0.039-0.039-0.078-0.077-0.117-0.115-4.531-4.512-9.523-8.283-14.827-11.318l28.127-28.127 26.372,26.372-26.372,26.373z"/>
</svg>
